<svg width="25" height="26" viewBox="0 0 25 26" fill="none" xmlns="http://www.w3.org/2000/svg">
<path fill-rule="evenodd" clip-rule="evenodd" d="M2.5 6.4375C2.5 5.91973 2.91973 5.5 3.4375 5.5H21.5625C22.0803 5.5 22.5 5.91973 22.5 6.4375C22.5 6.95527 22.0803 7.375 21.5625 7.375H3.4375C2.91973 7.375 2.5 6.95527 2.5 6.4375ZM11.25 19.5625C11.25 19.0447 11.6697 18.625 12.1875 18.625H21.5625C22.0803 18.625 22.5 19.0447 22.5 19.5625C22.5 20.0803 22.0803 20.5 21.5625 20.5H12.1875C11.6697 20.5 11.25 20.0803 11.25 19.5625Z" fill="#F8F8F3"/>
<path fill-rule="evenodd" clip-rule="evenodd" d="M2.5 13C2.5 12.4822 2.91973 12.0625 3.4375 12.0625H21.5625C22.0803 12.0625 22.5 12.4822 22.5 13C22.5 13.5178 22.0803 13.9375 21.5625 13.9375H3.4375C2.91973 13.9375 2.5 13.5178 2.5 13Z" fill="#F8F8F3"/>
</svg>
