<svg width="13" height="13" viewBox="0 0 13 13" fill="none" xmlns="http://www.w3.org/2000/svg">
<path d="M1.98355 3.70831C2.80289 3.70831 3.4671 3.0441 3.4671 2.22476C3.4671 1.40542 2.80289 0.741211 1.98355 0.741211C1.16421 0.741211 0.5 1.40542 0.5 2.22476C0.5 3.0441 1.16421 3.70831 1.98355 3.70831Z" fill="white"/>
<path d="M3.21984 4.69922H0.747258C0.610772 4.69922 0.5 4.80999 0.5 4.94648V12.3642C0.5 12.5007 0.610772 12.6115 0.747258 12.6115H3.21984C3.35633 12.6115 3.4671 12.5007 3.4671 12.3642V4.94648C3.4671 4.80999 3.35633 4.69922 3.21984 4.69922Z" fill="white"/>
<path d="M10.5885 4.2881C9.53175 3.92612 8.20991 4.24409 7.4172 4.81427C7.39 4.70795 7.29307 4.62882 7.17785 4.62882H4.70527C4.56878 4.62882 4.45801 4.73959 4.45801 4.87608V12.2938C4.45801 12.4303 4.56878 12.5411 4.70527 12.5411H7.17785C7.31434 12.5411 7.42511 12.4303 7.42511 12.2938V6.96294C7.82468 6.61876 8.33947 6.50897 8.7608 6.68799C9.16927 6.86058 9.40317 7.2819 9.40317 7.84318V12.2938C9.40317 12.4303 9.51395 12.5411 9.65043 12.5411H12.123C12.2595 12.5411 12.3703 12.4303 12.3703 12.2938V7.3452C12.3421 5.31323 11.3862 4.56107 10.5885 4.2881Z" fill="white"/>
</svg>
