<svg width="44" height="40" viewBox="0 0 44 40" fill="none" xmlns="http://www.w3.org/2000/svg">
<g clip-path="url(#clip0_853_363)">
<path d="M12.7722 17.4014C12.566 17.3062 12.3597 17.2111 12.1536 17.1159C11.4954 16.8119 11.0924 16.6334 10.3124 16.3442C9.60528 16.0819 8.6054 16.028 7.92075 16.113C7.32588 16.1868 6.76098 16.401 6.1936 16.7029C5.739 16.9448 5.07251 17.1886 4.53161 17.2086C2.73359 17.2771 1.88641 14.9655 3.28585 13.8095C3.62376 13.5303 4.04734 13.2958 4.28911 13.1798C4.56134 13.0492 4.88203 12.9106 5.0335 12.8401C5.1557 12.7831 5.41622 12.69 5.78587 12.5581C6.59069 12.271 7.07695 12.1252 8.08483 12.0408C8.82295 11.9789 9.73711 12.032 10.3549 12.1821C10.7248 12.272 11.0525 12.3769 11.3868 12.4866C11.4488 12.507 11.5111 12.5274 11.5732 12.5478C11.5647 12.6141 11.5596 12.6804 11.5528 12.7468C11.4355 13.8726 11.8587 15.5406 12.468 16.7815C12.5694 16.9882 12.6707 17.1948 12.7722 17.4014Z" fill="#282A36" stroke="white" stroke-width="2.61303"/>
<path d="M22.0307 2.23452C19.403 2.23456 16.8829 3.3016 15.0249 5.2009C13.1668 7.10019 12.123 9.67617 12.123 12.3622C12.1305 13.8932 12.4774 15.4026 13.1378 16.7768C13.7981 18.151 14.7547 19.3543 15.9355 20.2962C15.8504 20.4734 15.7727 20.6542 15.7027 20.8382C15.2688 20.5333 14.6905 19.9976 14.1728 19.4402C13.6713 18.9001 12.9701 18.3415 12.1255 18.0398C11.3709 17.7702 10.6385 17.6434 9.87009 17.6667C9.40903 17.6807 8.93503 17.7488 8.43527 17.8724C7.57106 18.0862 6.79182 18.4223 6.21862 18.7296C5.6613 19.0283 5.07019 19.5039 4.49715 20.0649C3.88183 20.6672 3.4938 21.1643 3.15435 21.6853C2.85467 22.1453 2.42125 22.8152 2.04188 23.721C1.60694 24.7592 1.44523 25.8994 1.3725 26.6557C1.31014 27.3051 1.29797 27.9084 1.31174 28.5449C1.3255 29.1792 1.29868 29.578 1.39758 30.2189C1.75298 32.5297 5.10891 32.1686 4.98539 29.8329C4.93274 28.8427 4.96754 28.4571 5.01452 27.922C5.07445 27.2338 5.14232 26.2748 5.39203 25.5854C5.59865 25.0149 5.90737 24.3523 6.39358 23.6786C7.06341 22.7507 7.78454 22.1757 8.91174 21.8147C9.55767 21.6077 10.0826 21.5466 10.6056 21.6248C11.1293 21.703 11.755 21.8878 12.1616 22.1122C11.6417 22.5365 11.0086 23.1376 10.5171 23.8289C9.98487 24.5772 9.54077 25.3201 9.2717 26.4052C9.01811 27.4277 8.92941 28.5245 9.04118 29.4623C9.16818 30.5276 9.60056 31.5769 10.0188 32.3996C10.1739 32.7046 10.3842 33.0396 10.6209 33.3764C10.8415 32.73 11.2272 32.1557 11.7381 31.7129C12.2489 31.2701 12.8662 30.975 13.5262 30.8582C13.2306 30.331 13.0354 29.7586 12.9432 29.2723C12.8436 28.7464 12.8042 28.2859 12.9432 27.665C13.0517 27.1745 13.1914 26.7933 13.315 26.5571C13.5246 26.1561 13.9864 25.5405 14.4446 25.2472C14.7665 25.0412 15.0872 24.8774 15.3732 24.7949C15.6907 26.349 16.521 27.7444 17.7251 28.7473C18.9291 29.7502 20.4337 30.2997 21.9869 30.3037C23.5441 30.3034 25.0536 29.7548 26.2614 28.7502C27.4692 27.7455 28.3015 26.3462 28.6182 24.7878C28.8892 24.8753 29.1879 25.0299 29.488 25.222C29.9462 25.5152 30.408 26.1309 30.6176 26.5318C30.7411 26.768 30.8809 27.1492 30.9893 27.6398C31.1284 28.2607 31.089 28.7212 30.9893 29.247C30.8972 29.7334 30.702 30.3058 30.4064 30.833C31.0663 30.9498 31.6837 31.2449 32.1945 31.6877C32.7053 32.1304 33.0911 32.7048 33.3117 33.3512C33.5484 33.0143 33.7587 32.6794 33.9137 32.3743C34.332 31.5517 34.7644 30.5024 34.8914 29.4371C35.0032 28.4992 34.9145 27.4025 34.6609 26.38C34.3918 25.2949 33.9477 24.5519 33.4155 23.8036C32.9239 23.1124 32.2909 22.5113 31.771 22.087C32.1776 21.8626 32.8032 21.6778 33.3269 21.5995C33.85 21.5214 34.3749 21.5825 35.0208 21.7894C36.148 22.1505 36.8692 22.7255 37.539 23.6534C38.0252 24.327 38.3339 24.9896 38.5405 25.5601C38.7902 26.2495 38.8581 27.2086 38.918 27.8967C38.965 28.4319 38.9998 28.8174 38.9472 29.8076C38.8237 32.1433 42.1796 32.5045 42.535 30.1937C42.6339 29.5528 42.607 29.154 42.6208 28.5196C42.6346 27.8832 42.6223 27.2799 42.5601 26.6304C42.4873 25.8742 42.3256 24.734 41.8907 23.6958C41.5113 22.7899 41.0779 22.12 40.7782 21.6601C40.4388 21.1391 40.0507 20.6419 39.4354 20.0396C38.8624 19.4786 38.2713 19.003 37.7139 18.7043C37.1407 18.397 36.3615 18.061 35.4973 17.8472C34.9975 17.7235 34.5235 17.6555 34.0625 17.6415C33.294 17.6182 32.5617 17.745 31.807 18.0146C30.9624 18.3163 30.2613 18.8749 29.7598 19.415C29.2559 19.9575 28.6962 20.4766 28.2663 20.7856C28.2069 20.6357 28.1425 20.4881 28.073 20.3429C29.2697 19.4017 30.24 18.1933 30.91 16.8101C31.58 15.427 31.9318 13.9056 31.9386 12.3622C31.9386 11.0322 31.6823 9.71522 31.1844 8.48647C30.6865 7.25773 29.9567 6.14127 29.0367 5.20082C28.1166 4.26039 27.0244 3.51439 25.8223 3.00543C24.6202 2.49647 23.3318 2.23451 22.0307 2.23452ZM19.4051 21.7494C19.5571 21.7494 19.7075 21.78 19.8479 21.8394C19.9883 21.8988 20.1159 21.9859 20.2234 22.0957C20.3308 22.2056 20.4161 22.336 20.4742 22.4795C20.5324 22.623 20.5623 22.7768 20.5623 22.9321C20.5623 23.0874 20.5324 23.2413 20.4743 23.3848C20.4161 23.5283 20.3309 23.6587 20.2234 23.7685C20.116 23.8784 19.9884 23.9655 19.848 24.025C19.7076 24.0844 19.5571 24.115 19.4051 24.115C19.2532 24.115 19.1027 24.0844 18.9623 24.0249C18.8219 23.9655 18.6944 23.8783 18.5869 23.7685C18.4795 23.6586 18.3943 23.5282 18.3361 23.3847C18.278 23.2412 18.2481 23.0874 18.2481 22.9321C18.2481 22.6184 18.37 22.3176 18.587 22.0958C18.804 21.874 19.0982 21.7494 19.4051 21.7494ZM24.6324 21.76C24.9393 21.7601 25.2335 21.8847 25.4505 22.1065C25.6675 22.3283 25.7894 22.6291 25.7894 22.9427C25.7894 23.2564 25.6675 23.5572 25.4505 23.779C25.2335 24.0008 24.9393 24.1254 24.6324 24.1254C24.4804 24.1254 24.33 24.0949 24.1896 24.0354C24.0492 23.976 23.9216 23.8889 23.8142 23.7791C23.7067 23.6692 23.6215 23.5389 23.5633 23.3954C23.5051 23.2519 23.4752 23.0981 23.4752 22.9427C23.4752 22.7874 23.5051 22.6336 23.5633 22.4901C23.6215 22.3466 23.7067 22.2162 23.8142 22.1064C23.9216 21.9966 24.0492 21.9095 24.1896 21.85C24.33 21.7906 24.4804 21.76 24.6324 21.76Z" fill="#282A36" stroke="white" stroke-width="2.61304"/>
<path d="M31.2105 17.483C31.4166 17.3878 31.6228 17.2926 31.8289 17.1974C32.4871 16.8935 32.8902 16.7149 33.6702 16.4257C34.3773 16.1635 35.3772 16.1096 36.0618 16.1945C36.6567 16.2684 37.2215 16.4825 37.7889 16.7844C38.2435 17.0263 38.91 17.2701 39.4509 17.2902C41.2489 17.3586 42.0962 15.0471 40.6968 13.891C40.3589 13.6119 39.9352 13.3774 39.6934 13.2614C39.4211 13.1308 39.1005 12.9921 38.949 12.9216C38.8268 12.8647 38.5663 12.7715 38.1966 12.6396C37.3918 12.3525 36.9056 12.2068 35.8977 12.1223C35.1596 12.0605 34.2455 12.1135 33.6277 12.2637C33.2578 12.3536 32.9301 12.4585 32.5957 12.5681C32.5342 12.5885 32.4715 12.6089 32.4094 12.6293C32.4175 12.6956 32.4231 12.762 32.4296 12.8283C32.5469 13.9541 32.1237 15.6221 31.5144 16.8631C31.413 17.0697 31.3119 17.2763 31.2105 17.483Z" fill="#282A36" stroke="white" stroke-width="2.61303"/>
<path d="M29.6103 31.2413C28.9312 31.2432 28.2684 31.4544 27.7086 31.8474C27.1488 32.2403 26.718 32.7968 26.4725 33.444L17.4887 33.4565C17.2435 32.8064 16.8116 32.2475 16.2498 31.8532C15.6879 31.4589 15.0224 31.2477 14.3409 31.2475C13.8976 31.2474 13.4588 31.3367 13.0493 31.51C12.6398 31.6834 12.2677 31.9375 11.9543 32.2579C11.6409 32.5782 11.3923 32.9585 11.2227 33.3771C11.0531 33.7957 10.9658 34.2443 10.9658 34.6973C10.9658 35.6123 11.3214 36.4897 11.9544 37.1367C12.5873 37.7836 13.4458 38.1471 14.3409 38.147C15.0328 38.1451 15.7075 37.9259 16.2735 37.519C16.8394 37.1121 17.2694 36.5372 17.505 35.8722L26.444 35.8595C26.6787 36.5261 27.1086 37.1027 27.675 37.5108C28.2415 37.919 28.9172 38.139 29.6103 38.1409C30.0535 38.1409 30.4924 38.0517 30.9019 37.8783C31.3114 37.705 31.6834 37.4508 31.9969 37.1305C32.3103 36.8101 32.5589 36.4298 32.7285 36.0113C32.8981 35.5927 32.9854 35.1441 32.9853 34.691C32.9853 33.7761 32.6297 32.8986 31.9968 32.2517C31.3638 31.6047 30.5054 31.2413 29.6103 31.2413Z" fill="#8564FF" stroke="white" stroke-width="1.86645"/>
<path d="M18.0625 21.659C19.3049 22.2286 20.6509 22.5258 22.0126 22.5258C23.3743 22.5258 24.7203 22.2286 25.9627 21.659H18.0625Z" fill="#282A36" stroke="white" stroke-width="1.86645"/>
<path d="M12.7722 17.4014C12.566 17.3062 12.3597 17.2111 12.1536 17.1159C11.4954 16.8119 11.0924 16.6334 10.3124 16.3442C9.60528 16.0819 8.6054 16.028 7.92075 16.113C7.32588 16.1868 6.76098 16.401 6.1936 16.7029C5.739 16.9448 5.07251 17.1886 4.53161 17.2086C2.73359 17.2771 1.88641 14.9655 3.28585 13.8095C3.62376 13.5303 4.04734 13.2958 4.28911 13.1798C4.56134 13.0492 4.88203 12.9106 5.0335 12.8401C5.1557 12.7831 5.41622 12.69 5.78587 12.5581C6.59069 12.271 7.07695 12.1252 8.08483 12.0408C8.82295 11.9789 9.73711 12.032 10.3549 12.1821C10.7248 12.272 11.0525 12.3769 11.3868 12.4866C11.4488 12.507 11.5111 12.5274 11.5732 12.5478C11.5647 12.6141 11.5596 12.6804 11.5528 12.7468C11.4355 13.8726 11.8587 15.5406 12.468 16.7815C12.5694 16.9882 12.6707 17.1948 12.7722 17.4014Z" fill="#282A36"/>
<path d="M21.9869 16.4553C21.0973 16.4553 20.2164 16.6344 19.3946 16.9824C18.5727 17.3304 17.826 17.8404 17.1969 18.4834C16.5679 19.1263 16.069 19.8897 15.7285 20.7298C15.3881 21.5698 15.2129 22.4702 15.2129 23.3795C15.2129 24.2888 15.3881 25.1892 15.7285 26.0293C16.069 26.8694 16.5679 27.6327 17.1969 28.2757C17.826 28.9187 18.5727 29.4287 19.3946 29.7767C20.2164 30.1247 21.0973 30.3038 21.9869 30.3038C22.8765 30.3038 23.7573 30.1247 24.5792 29.7767C25.401 29.4287 26.1478 28.9187 26.7768 28.2757C27.4058 27.6327 27.9048 26.8694 28.2452 26.0293C28.5857 25.1892 28.7609 24.2888 28.7609 23.3795C28.7609 22.4702 28.5857 21.5698 28.2452 20.7298C27.9048 19.8897 27.4058 19.1263 26.7768 18.4834C26.1478 17.8404 25.401 17.3304 24.5792 16.9824C23.7573 16.6344 22.8765 16.4553 21.9869 16.4553ZM19.4051 21.7494C19.557 21.7494 19.7075 21.78 19.8479 21.8394C19.9883 21.8989 20.1159 21.986 20.2233 22.0958C20.3308 22.2056 20.416 22.336 20.4742 22.4795C20.5323 22.623 20.5623 22.7768 20.5623 22.9321C20.5623 23.0875 20.5324 23.2413 20.4742 23.3848C20.4161 23.5283 20.3308 23.6588 20.2234 23.7686C20.1159 23.8784 19.9883 23.9656 19.8479 24.025C19.7075 24.0845 19.557 24.115 19.4051 24.115C19.2531 24.115 19.1026 24.0844 18.9623 24.025C18.8219 23.9655 18.6943 23.8784 18.5869 23.7685C18.4794 23.6587 18.3942 23.5283 18.3361 23.3848C18.2779 23.2413 18.248 23.0875 18.248 22.9321C18.2481 22.6185 18.37 22.3177 18.5869 22.0959C18.8039 21.8741 19.0982 21.7495 19.4051 21.7494ZM24.6324 21.7601C24.9392 21.7601 25.2335 21.8847 25.4505 22.1065C25.6675 22.3283 25.7894 22.6291 25.7894 22.9428C25.7894 23.2564 25.6675 23.5573 25.4505 23.779C25.2335 24.0008 24.9392 24.1255 24.6324 24.1255C24.4804 24.1255 24.3299 24.0949 24.1895 24.0355C24.0491 23.9761 23.9216 23.8889 23.8141 23.7791C23.7067 23.6693 23.6214 23.5389 23.5632 23.3954C23.5051 23.2519 23.4751 23.0981 23.4751 22.9428C23.4751 22.7875 23.5051 22.6337 23.5632 22.4902C23.6214 22.3467 23.7067 22.2163 23.8141 22.1064C23.9216 21.9966 24.0491 21.9095 24.1895 21.8501C24.3299 21.7907 24.4804 21.7601 24.6324 21.7601Z" fill="#282A36"/>
<path d="M22.0308 2.23451C19.403 2.23455 16.883 3.30159 15.0249 5.20089C13.1669 7.10019 12.123 9.67617 12.123 12.3622C12.1282 14.1796 12.6117 15.9621 13.5228 17.5227C14.434 19.0834 15.7392 20.3647 17.3015 21.2322V20.422H26.7831V21.2194C28.3393 20.3498 29.6387 19.0692 30.5455 17.5112C31.4524 15.9533 31.9335 14.175 31.9387 12.3622C31.9387 11.0322 31.6824 9.71522 31.1845 8.48647C30.6866 7.25773 29.9567 6.14126 29.0367 5.20082C28.1167 4.26038 27.0244 3.51439 25.8224 3.00542C24.6203 2.49647 23.3319 2.23451 22.0308 2.23451Z" fill="#282A36"/>
<path d="M9.87009 17.6668C9.40903 17.6808 8.93503 17.7488 8.43527 17.8724C7.57106 18.0863 6.79182 18.4223 6.21862 18.7296C5.6613 19.0283 5.07019 19.5039 4.49715 20.0649C3.88183 20.6672 3.4938 21.1644 3.15435 21.6853C2.85467 22.1453 2.42125 22.8152 2.04188 23.721C1.60693 24.7593 1.44523 25.8995 1.3725 26.6557C1.31014 27.3052 1.29797 27.9085 1.31174 28.5449C1.3255 29.1793 1.29868 29.578 1.39758 30.219C1.75298 32.5298 5.10891 32.1686 4.98539 29.8329C4.93274 28.8427 4.96754 28.4572 5.01452 27.922C5.07445 27.2338 5.14232 26.2748 5.39203 25.5854C5.59865 25.0149 5.90737 24.3523 6.39358 23.6787C7.06341 22.7507 7.78454 22.1757 8.91174 21.8147C9.55767 21.6078 10.0826 21.5466 10.6056 21.6248C11.1293 21.7031 11.755 21.8879 12.1616 22.1122C11.6417 22.5365 11.0086 23.1377 10.5171 23.8289C9.98487 24.5772 9.54076 25.3201 9.2717 26.4053C9.01811 27.4278 8.92941 28.5245 9.04118 29.4624C9.16818 30.5277 9.60056 31.5769 10.0188 32.3996C10.1739 32.7047 10.3842 33.0396 10.6209 33.3764C10.8415 32.73 11.2272 32.1557 11.7381 31.7129C12.2489 31.2702 12.8662 30.9751 13.5262 30.8582C13.2306 30.331 13.0354 29.7586 12.9432 29.2723C12.8436 28.7465 12.8042 28.2859 12.9432 27.6651C13.0517 27.1745 13.1914 26.7933 13.315 26.5571C13.5246 26.1561 13.9864 25.5405 14.4446 25.2472C14.7953 25.0228 15.1466 24.8436 15.4508 24.7706C15.3262 23.7509 15.2563 23.5903 15.3524 22.6533C15.4485 21.7163 15.7723 20.8903 15.7723 20.8903C15.3329 20.596 14.7169 20.0261 14.1728 19.4402C13.6713 18.9001 12.9701 18.3415 12.1255 18.0398C11.3709 17.7703 10.6385 17.6435 9.87009 17.6668Z" fill="#282A36"/>
<path d="M34.0624 17.6415C34.5235 17.6555 34.9975 17.7235 35.4972 17.8472C36.3614 18.061 37.1407 18.397 37.7139 18.7043C38.2712 19.0031 38.8623 19.4787 39.4353 20.0396C40.0507 20.642 40.4387 21.1391 40.7781 21.6601C41.0778 22.1201 41.5112 22.7899 41.8906 23.6958C42.3256 24.734 42.4873 25.8742 42.56 26.6304C42.6224 27.2799 42.6345 27.8832 42.6208 28.5196C42.607 29.154 42.6338 29.5528 42.5349 30.1937C42.1795 32.5045 38.8236 32.1434 38.9471 29.8076C38.9998 28.8174 38.9649 28.4319 38.918 27.8967C38.8581 27.2086 38.7902 26.2495 38.5405 25.5601C38.3339 24.9896 38.0251 24.327 37.5389 23.6534C36.8691 22.7255 36.148 22.1505 35.0208 21.7894C34.3748 21.5825 33.8499 21.5214 33.3269 21.5995C32.8032 21.6778 32.1775 21.8626 31.7709 22.087C32.2908 22.5113 32.9239 23.1124 33.4154 23.8036C33.9476 24.5519 34.3917 25.2949 34.6608 26.38C34.9144 27.4025 35.0031 28.4992 34.8913 29.4371C34.7643 30.5024 34.3319 31.5517 33.9137 32.3743C33.7586 32.6794 33.5483 33.0144 33.3116 33.3512C33.091 32.7048 32.7053 32.1304 32.1945 31.6877C31.6836 31.2449 31.0663 30.9498 30.4063 30.833C30.7019 30.3058 30.8971 29.7334 30.9893 29.247C31.0889 28.7212 31.1283 28.2607 30.9893 27.6398C30.8808 27.1493 30.7411 26.768 30.6176 26.5318C30.4079 26.1309 29.9461 25.5152 29.4879 25.222C29.1372 24.9975 28.7859 24.8183 28.4817 24.7454C28.6063 23.7256 28.6762 23.565 28.5801 22.628C28.484 21.6911 28.1602 20.865 28.1602 20.865C28.5996 20.5707 29.2156 20.0008 29.7597 19.415C30.2612 18.8749 30.9624 18.3163 31.807 18.0146C32.5616 17.745 33.294 17.6182 34.0624 17.6415Z" fill="#282A36"/>
<path d="M31.2105 17.483C31.4166 17.3878 31.6228 17.2926 31.8289 17.1974C32.4871 16.8935 32.8902 16.7149 33.6702 16.4257C34.3773 16.1635 35.3772 16.1096 36.0618 16.1945C36.6567 16.2684 37.2215 16.4825 37.7889 16.7844C38.2435 17.0263 38.91 17.2701 39.4509 17.2902C41.2489 17.3586 42.0962 15.0471 40.6968 13.891C40.3589 13.6119 39.9352 13.3774 39.6934 13.2614C39.4211 13.1308 39.1005 12.9921 38.949 12.9216C38.8268 12.8647 38.5663 12.7715 38.1966 12.6396C37.3918 12.3525 36.9056 12.2068 35.8977 12.1223C35.1596 12.0605 34.2455 12.1135 33.6277 12.2637C33.2578 12.3536 32.9301 12.4585 32.5957 12.5681C32.5342 12.5885 32.4715 12.6089 32.4094 12.6293C32.4175 12.6956 32.4231 12.762 32.4296 12.8283C32.5469 13.9541 32.1237 15.6221 31.5144 16.8631C31.413 17.0697 31.3119 17.2763 31.2105 17.483Z" fill="#282A36"/>
<path d="M17.7157 34.6974C17.7157 32.7921 16.2047 31.2476 14.3408 31.2476C12.4768 31.2476 10.9658 32.7921 10.9658 34.6974C10.9658 36.6026 12.4768 38.1472 14.3408 38.1472C16.2047 38.1472 17.7157 36.6026 17.7157 34.6974Z" fill="#8564FF"/>
<path d="M32.9852 34.6911C32.9852 32.7858 31.4742 31.2413 29.6103 31.2413C27.7464 31.2413 26.2354 32.7858 26.2354 34.6911C26.2354 36.5963 27.7464 38.1409 29.6103 38.1409C31.4742 38.1409 32.9852 36.5963 32.9852 34.6911Z" fill="#8564FF"/>
<path d="M17.0059 33.4571C17.1017 33.7227 17.2404 34.196 17.2492 34.5771C17.2593 35.0149 17.0307 35.8727 17.0307 35.8727L26.9189 35.8589C26.9189 35.8589 26.6724 35.3267 26.7014 34.5771C26.7304 33.8276 26.8489 33.6952 26.9417 33.4434L17.0059 33.4571Z" fill="#8564FF"/>
<path d="M20.1044 14.9051L16.7361 13.1836C16.6326 13.1306 16.5455 13.0493 16.4847 12.9487C16.4238 12.848 16.3916 12.7321 16.3916 12.6138V12.0706C16.3916 11.9523 16.4238 11.8363 16.4847 11.7357C16.5455 11.635 16.6326 11.5537 16.7361 11.5008L20.1044 9.77928C20.1995 9.73072 20.305 9.7078 20.4112 9.71268C20.5173 9.71756 20.6204 9.75009 20.7108 9.80718C20.8011 9.86426 20.8757 9.94401 20.9275 10.0389C20.9792 10.1337 21.0063 10.2405 21.0063 10.3491V10.6271C21.0063 10.7455 20.9741 10.8614 20.9132 10.9621C20.8524 11.0627 20.7653 11.144 20.6618 11.1969L18.5802 12.2608C18.5654 12.2683 18.553 12.28 18.5443 12.2943C18.5356 12.3087 18.531 12.3253 18.531 12.3422C18.531 12.3591 18.5356 12.3756 18.5443 12.39C18.553 12.4044 18.5654 12.416 18.5802 12.4236L20.6618 13.4874C20.7653 13.5403 20.8524 13.6217 20.9132 13.7223C20.9741 13.8229 21.0063 13.9389 21.0063 14.0572V14.3353C21.0063 14.4439 20.9792 14.5507 20.9275 14.6455C20.8757 14.7403 20.8011 14.8201 20.7108 14.8772C20.6204 14.9343 20.5173 14.9668 20.4112 14.9717C20.305 14.9766 20.1995 14.9536 20.1044 14.9051Z" fill="#8564FF"/>
<path d="M23.8121 14.9051L27.1804 13.1836C27.284 13.1307 27.371 13.0493 27.4319 12.9487C27.4927 12.8481 27.5249 12.7321 27.5249 12.6138V12.0706C27.5249 11.9523 27.4927 11.8363 27.4319 11.7357C27.371 11.635 27.284 11.5537 27.1804 11.5008L23.8121 9.77929C23.717 9.73073 23.6115 9.7078 23.5053 9.71268C23.3992 9.71756 23.2961 9.75009 23.2057 9.80718C23.1154 9.86426 23.0408 9.94401 22.989 10.0389C22.9373 10.1337 22.9102 10.2405 22.9102 10.3491V10.6271C22.9102 10.7455 22.9424 10.8614 23.0033 10.9621C23.0641 11.0627 23.1512 11.144 23.2547 11.1969L25.3363 12.2608C25.3511 12.2683 25.3635 12.28 25.3722 12.2943C25.3809 12.3087 25.3855 12.3253 25.3855 12.3422C25.3855 12.3591 25.3809 12.3756 25.3722 12.39C25.3635 12.4044 25.3511 12.416 25.3363 12.4236L23.2547 13.4874C23.1512 13.5403 23.0641 13.6217 23.0033 13.7223C22.9424 13.8229 22.9102 13.9389 22.9102 14.0572V14.3353C22.9102 14.4439 22.9373 14.5507 22.989 14.6455C23.0408 14.7404 23.1154 14.8201 23.2057 14.8772C23.2961 14.9343 23.3992 14.9668 23.5053 14.9717C23.6115 14.9766 23.717 14.9536 23.8121 14.9051Z" fill="#8564FF"/>
<path d="M18.0879 21.6556C19.3303 22.2253 20.6913 22.5224 22.038 22.5224C23.3847 22.5224 24.7456 22.2253 25.9881 21.6556H18.0879Z" fill="#282A36"/>
</g>
<defs>
<clipPath id="clip0_853_363">
<rect width="43.9322" height="38.2019" fill="white" transform="translate(0 0.899048)"/>
</clipPath>
</defs>
</svg>
