<svg width="15" height="15" viewBox="0 0 15 15" fill="none" xmlns="http://www.w3.org/2000/svg">
<path fill-rule="evenodd" clip-rule="evenodd" d="M14.748 7.74121C14.748 8.72345 14.276 9.59544 13.5464 10.1427C13.6754 11.0456 13.3926 11.9961 12.698 12.6907C12.0034 13.3853 11.0529 13.6681 10.1499 13.539C9.6027 14.2689 8.73053 14.7412 7.74805 14.7412C6.76578 14.7412 5.89377 14.2691 5.34653 13.5395C4.44361 13.6685 3.49318 13.3857 2.7986 12.6911C2.10399 11.9965 1.82121 11.046 1.95024 10.1431C1.22033 9.59585 0.748047 8.72369 0.748047 7.74121C0.748047 6.75894 1.22012 5.88694 1.94978 5.33969C1.82078 4.43678 2.10357 3.48634 2.79815 2.79177C3.49275 2.09716 4.44323 1.81437 5.34618 1.94341C5.8934 1.21349 6.76557 0.741211 7.74805 0.741211C8.73029 0.741211 9.60227 1.21326 10.1495 1.94288C11.0525 1.81386 12.0029 2.09665 12.6975 2.79124C13.3921 3.48587 13.6749 4.43637 13.5458 5.33934C14.2758 5.88656 14.748 6.75873 14.748 7.74121ZM11.4566 4.89778C11.7844 5.15105 11.8448 5.62207 11.5915 5.94983L7.34152 11.4498C7.20552 11.6258 6.99841 11.7324 6.77614 11.7407C6.55388 11.7491 6.33938 11.6583 6.19058 11.493L3.94058 8.99297C3.66349 8.68509 3.68845 8.21087 3.99633 7.93378C4.30421 7.65668 4.77843 7.68164 5.05552 7.98952L6.70421 9.82139L10.4046 5.03266C10.6579 4.7049 11.1289 4.64451 11.4566 4.89778Z" fill="#282A36"/>
</svg>
