<svg width="27" height="27" viewBox="0 0 27 27" fill="none" xmlns="http://www.w3.org/2000/svg">
<path d="M11.1005 18.621L10.084 22.1787L9.06749 18.621C8.53358 16.7523 7.07289 15.2916 5.20422 14.7577L1.64648 13.7412L5.20422 12.7247C7.07289 12.1908 8.53358 10.7301 9.06749 8.86145L10.084 5.30371L11.1005 8.86145C11.6344 10.7301 13.0951 12.1908 14.9637 12.7247L18.5215 13.7412L14.9637 14.7577C13.0951 15.2916 11.6344 16.7523 11.1005 18.621Z" stroke="#F8F8F3" stroke-width="1.5" stroke-linecap="round" stroke-linejoin="round"/>
<path d="M21.6576 9.63438L21.334 10.9287L21.0104 9.63438C20.6325 8.12287 19.4523 6.94267 17.9408 6.56479L16.6465 6.24121L17.9408 5.91763C19.4523 5.53975 20.6325 4.35955 21.0104 2.84804L21.334 1.55371L21.6576 2.84804C22.0354 4.35955 23.2156 5.53975 24.7272 5.91763L26.0215 6.24121L24.7272 6.56479C23.2156 6.94267 22.0354 8.12287 21.6576 9.63438Z" stroke="#F8F8F3" stroke-width="1.5" stroke-linecap="round" stroke-linejoin="round"/>
<path d="M19.9518 24.4503L19.459 25.9287L18.9662 24.4503C18.6862 23.6105 18.0272 22.9515 17.1874 22.6715L15.709 22.1787L17.1874 21.6859C18.0272 21.406 18.6862 20.747 18.9662 19.9071L19.459 18.4287L19.9518 19.9071C20.2317 20.747 20.8907 21.406 21.7306 21.6859L23.209 22.1787L21.7306 22.6715C20.8907 22.9515 20.2317 23.6105 19.9518 24.4503Z" stroke="#F8F8F3" stroke-width="1.5" stroke-linecap="round" stroke-linejoin="round"/>
</svg>
