<svg width="25" height="26" viewBox="0 0 25 26" fill="none" xmlns="http://www.w3.org/2000/svg">
<path d="M7.85041 7.02459C7.4843 6.65847 6.8907 6.65847 6.52459 7.02459C6.15847 7.3907 6.15847 7.9843 6.52459 8.35041L11.1742 13L6.52459 17.6496C6.15847 18.0157 6.15847 18.6093 6.52459 18.9754C6.8907 19.3415 7.4843 19.3415 7.85041 18.9754L12.5 14.3258L17.1496 18.9754C17.5157 19.3415 18.1093 19.3415 18.4754 18.9754C18.8415 18.6093 18.8415 18.0157 18.4754 17.6496L13.8258 13L18.4754 8.35041C18.8415 7.9843 18.8415 7.3907 18.4754 7.02459C18.1093 6.65847 17.5157 6.65847 17.1496 7.02459L12.5 11.6742L7.85041 7.02459Z" fill="#F8F8F3"/>
</svg>
